<?xml version="1.0" encoding="UTF-8" standalone="no"?>
<svg
   width="371.55081pt"
   height="418.04346pt"
   viewBox="0 0 371.55081 418.04346"
   version="1.1"
   id="svg15"
   sodipodi:docname="djezzy-og.svg"
   inkscape:version="1.3 (0e150ed6c4, 2023-07-21)"
   xmlns:inkscape="http://www.inkscape.org/namespaces/inkscape"
   xmlns:sodipodi="http://sodipodi.sourceforge.net/DTD/sodipodi-0.dtd"
   xmlns="http://www.w3.org/2000/svg"
   xmlns:svg="http://www.w3.org/2000/svg">
  <defs
     id="defs15" />
  <sodipodi:namedview
     id="namedview15"
     pagecolor="#ffffff"
     bordercolor="#666666"
     borderopacity="1.0"
     inkscape:showpageshadow="2"
     inkscape:pageopacity="0.0"
     inkscape:pagecheckerboard="0"
     inkscape:deskcolor="#d1d1d1"
     inkscape:document-units="pt"
     inkscape:zoom="1.2990506"
     inkscape:cx="250.5676"
     inkscape:cy="279.04994"
     inkscape:window-width="1920"
     inkscape:window-height="1017"
     inkscape:window-x="-8"
     inkscape:window-y="-8"
     inkscape:window-maximized="1"
     inkscape:current-layer="svg15" />
  <g
     id="#ffffffff"
     transform="translate(-9.4819992,-27.970765)">
    <path
       fill="#ffffff"
       opacity="1"
       d="m 39.31,210.07 c 11.01,0.56 22.58,-1.69 33.11,2.49 7.81,3.01 12.28,11.31 12.37,19.42 0.08,8.39 1.01,17.54 -3.61,25.01 -3.92,6.61 -11.74,9.71 -19.14,10.04 -7.57,0.33 -15.15,0.08 -22.73,0.15 0,-19.04 0,-38.07 0,-57.11 m 9.94,8.25 c 0,13.51 0,27.03 0,40.55 6.58,-0.34 14.04,1.31 19.79,-2.79 4.95,-3.67 5.72,-10.37 5.66,-16.08 0.05,-6.21 0.48,-13.65 -4.69,-18.14 -5.79,-4.82 -13.81,-3.27 -20.76,-3.54 z"
       id="path1" />
    <path
       fill="#ffffff"
       opacity="1"
       d="m 94.2,210.05 c 7.91,0.02 15.82,0 23.74,0.01 -0.02,13.35 0.04,26.7 -0.03,40.04 0.03,5.6 -2.33,11.55 -7.33,14.45 -5.65,3.45 -12.53,2.5 -18.83,2.63 0,-2.77 0,-5.54 0,-8.31 3.83,-0.15 7.8,0.47 11.52,-0.62 3.41,-1.12 4.8,-4.95 4.75,-8.25 0.1,-10.56 0.01,-21.12 0.03,-31.68 -4.62,-0.01 -9.24,-0.01 -13.86,-0.01 -0.01,-2.75 -0.01,-5.51 0.01,-8.26 z"
       id="path2" />
    <path
       fill="#ffffff"
       opacity="1"
       d="m 131.24,210.07 c 11.53,-0.02 23.05,-0.02 34.58,-0.01 0,2.75 -0.01,5.5 0,8.25 -8.21,0.01 -16.42,0 -24.63,0 -0.01,5 0,10 0,14.99 7.39,0.02 14.79,-0.01 22.19,0.02 -0.01,2.79 -0.01,5.57 0,8.36 -7.4,0.03 -14.79,-0.01 -22.19,0.02 0.14,4.29 -0.39,8.66 0.44,12.91 0.5,2.46 2.83,4.1 5.27,4.16 6.44,0.26 12.9,0.02 19.35,0.11 0,2.76 0,5.53 0,8.3 -6.75,-0.02 -13.5,0.06 -20.24,-0.02 -3.77,-0.06 -7.78,-0.87 -10.61,-3.52 -3.17,-2.94 -4.17,-7.47 -4.15,-11.64 -0.01,-13.98 0.01,-27.96 -0.01,-41.93 z"
       id="path3" />
    <path
       fill="#ffffff"
       opacity="1"
       d="m 175.56,210.06 c 13.22,0 26.43,0 39.65,0 0.01,2.38 0.2,4.9 -1.11,7.01 -7.43,14.66 -16.37,28.54 -26.06,41.8 9.16,0 18.32,0.02 27.48,-0.01 0.05,2.77 0.07,5.55 0.03,8.33 -13.77,-0.01 -27.54,0.01 -41.3,-0.01 0,-1.69 0,-3.38 0,-5.06 10.43,-13.85 20.56,-28.13 28.11,-43.8 -8.93,-0.02 -17.86,0 -26.8,-0.01 0,-2.75 0,-5.5 0,-8.25 z"
       id="path4" />
    <path
       fill="#ffffff"
       opacity="1"
       d="m 223.18,210.06 c 13.2,-0.01 26.4,-0.01 39.6,0 0.06,2.51 0.13,5.14 -1.27,7.34 -7.42,14.52 -16.28,28.29 -25.88,41.47 9.17,0.01 18.33,-0.01 27.49,0.01 0.01,2.76 0.01,5.53 0,8.3 -13.77,0.01 -27.54,0.01 -41.31,0 0.01,-1.7 0.01,-3.39 0.01,-5.08 10.46,-13.82 20.54,-28.12 28.11,-43.77 -8.91,-0.04 -17.83,0 -26.74,-0.02 -0.01,-2.75 -0.01,-5.5 -0.01,-8.25 z"
       id="path5" />
    <path
       fill="#ffffff"
       opacity="1"
       d="m 267.26,210.09 c 3.51,-0.05 7.02,-0.04 10.53,-0.03 4.5,8.68 8.95,17.39 13.47,26.07 4.6,-8.69 9.17,-17.39 13.78,-26.07 3.28,-0.02 6.56,-0.01 9.84,0.04 -6.04,11.16 -12.37,22.16 -18.49,33.27 -0.84,1.41 -0.52,3.11 -0.6,4.66 0.06,6.38 0.01,12.77 0.02,19.15 -3.29,0.01 -6.58,0.01 -9.87,0 -0.09,-7.43 0.15,-14.87 -0.1,-22.29 -5.89,-11.74 -12.59,-23.09 -18.58,-34.8 z"
       id="path6" />
    <path
       fill="#ffffff"
       opacity="1"
       d="m 95.12,291.06 c 2.27,0 4.55,0 6.82,0 0,2.27 0,4.54 0,6.82 -2.27,-0.01 -4.54,-0.01 -6.82,0 0,-2.28 0,-4.55 0,-6.82 z"
       id="path7" />
    <path
       fill="#ffffff"
       opacity="1"
       d="m 108.25,291.82 c 2.29,-0.01 4.58,-0.01 6.87,-0.01 0.16,6.21 -0.31,12.45 0.26,18.63 0.15,2.44 2.31,4.09 4.68,4.08 13.19,0.1 26.39,0.16 39.59,0.07 -0.19,-5.34 -2.84,-10.99 -8.03,-13.07 -5.66,-2.46 -12.31,-0.43 -16.49,3.87 -1.09,-1.83 -2.21,-3.63 -3.36,-5.42 8.02,-7.71 22.33,-8.2 29.94,0.31 5.16,5.79 5.46,14.01 5.29,21.35 -16.37,-0.1 -32.74,0.16 -49.09,-0.05 -4.81,0.31 -9.1,-3.69 -9.44,-8.43 -0.5,-7.1 -0.09,-14.23 -0.22,-21.33 z"
       id="path8" />
    <path
       fill="#ffffff"
       opacity="1"
       d="m 63.81,301.79 c 4.03,-3.87 9.8,-4.95 15.19,-5.1 0,2.11 0,4.23 0,6.35 -5.19,-0.24 -10.81,1.74 -12.76,6.99 5.39,0.1 10.78,-0.07 16.17,-0.03 -0.06,6.11 -2.35,12.34 -7.09,16.36 -5.36,5.03 -13.35,6.35 -20.35,4.68 -6.65,-1.63 -12.38,-6.8 -14.48,-13.34 -1.43,-4.36 -0.99,-9 -1.05,-13.51 2.31,-0.01 4.63,-0.01 6.94,0 0.02,5.26 -0.56,11.14 2.79,15.6 5.98,8.34 21.1,6.82 24.78,-3.03 -5.23,-0.02 -10.46,0 -15.69,-0.01 0.12,-5.39 1.41,-11.19 5.55,-14.96 z"
       id="path9" />
    <path
       fill="#ffffff"
       opacity="1"
       d="m 95.13,303.44 c 2.28,-0.01 4.56,-0.01 6.84,-0.02 -0.4,7.25 1.29,14.99 -1.7,21.85 -2.39,5.16 -8.55,6.46 -13.7,6.51 0,-1.95 -0.01,-3.9 -0.01,-5.84 3.27,-0.17 7.15,-1.4 8.01,-5 1.11,-5.75 0.31,-11.68 0.56,-17.5 z"
       id="path10" />
    <path
       fill="#ffffff"
       opacity="1"
       d="m 143.01,326.43 c 2.24,0 4.49,0 6.74,0.01 0,2.29 0,4.58 -0.01,6.88 -2.25,-0.01 -4.5,-0.01 -6.74,-0.01 0,-2.3 0,-4.59 0.01,-6.88 z"
       id="path11" />
    <path
       fill="#ffffff"
       opacity="1"
       d="m 62.99,336.63 c 2.28,-0.01 4.55,-0.01 6.82,-0.01 0,2.27 0,4.54 0,6.82 -2.27,0 -4.53,0 -6.8,0.01 C 63,341.17 63,338.9 62.99,336.63 Z"
       id="path12" />
    <path
       fill="#ffffff"
       opacity="1"
       d="m 51.38,336.62 c 2.29,0 4.58,0 6.87,0.01 0,2.26 0,4.53 0,6.81 -2.29,0 -4.58,0 -6.87,0 -0.01,-2.28 -0.01,-4.55 0,-6.82 z"
       id="path13" />
  </g>
  <g
     id="#e2001aff"
     transform="translate(-9.4819992,-27.970765)">
    <path
       fill="#e2001a"
       opacity="1"
       d="m 27.49,28.56 c 5.82,-1.36 12.11,-0.33 17.24,2.72 108.1,61.86 216.21,123.71 324.31,185.56 6.93,3.75 11.71,11.22 11.96,19.13 0.41,7.34 -3.05,14.73 -8.9,19.17 -2.33,1.73 -4.92,3.05 -7.42,4.51 C 258.01,320.68 151.35,381.72 44.69,442.76 37.56,447.04 28.17,447.11 21,442.9 13.66,438.78 9.16,430.4 9.5,422.01 9.51,298.32 9.47,174.63 9.52,50.93 9.36,40.47 17.27,30.71 27.49,28.56 m 11.82,181.51 c 0,19.04 0,38.07 0,57.11 7.58,-0.07 15.16,0.18 22.73,-0.15 7.4,-0.33 15.22,-3.43 19.14,-10.04 4.62,-7.47 3.69,-16.62 3.61,-25.01 -0.09,-8.11 -4.56,-16.41 -12.37,-19.42 -10.53,-4.18 -22.1,-1.93 -33.11,-2.49 m 54.89,-0.02 c -0.02,2.75 -0.02,5.51 -0.01,8.26 4.62,0 9.24,0 13.86,0.01 -0.02,10.56 0.07,21.12 -0.03,31.68 0.05,3.3 -1.34,7.13 -4.75,8.25 -3.72,1.09 -7.69,0.47 -11.52,0.62 0,2.77 0,5.54 0,8.31 6.3,-0.13 13.18,0.82 18.83,-2.63 5,-2.9 7.36,-8.85 7.33,-14.45 0.07,-13.34 0.01,-26.69 0.03,-40.04 -7.92,-0.01 -15.83,0.01 -23.74,-0.01 m 37.04,0.02 c 0.02,13.97 0,27.95 0.01,41.93 -0.02,4.17 0.98,8.7 4.15,11.64 2.83,2.65 6.84,3.46 10.61,3.52 6.74,0.08 13.49,0 20.24,0.02 0,-2.77 0,-5.54 0,-8.3 -6.45,-0.09 -12.91,0.15 -19.35,-0.11 -2.44,-0.06 -4.77,-1.7 -5.27,-4.16 -0.83,-4.25 -0.3,-8.62 -0.44,-12.91 7.4,-0.03 14.79,0.01 22.19,-0.02 -0.01,-2.79 -0.01,-5.57 0,-8.36 -7.4,-0.03 -14.8,0 -22.19,-0.02 0,-4.99 -0.01,-9.99 0,-14.99 8.21,0 16.42,0.01 24.63,0 -0.01,-2.75 0,-5.5 0,-8.25 -11.53,-0.01 -23.05,-0.01 -34.58,0.01 m 44.32,-0.01 c 0,2.75 0,5.5 0,8.25 8.94,0.01 17.87,-0.01 26.8,0.01 -7.55,15.67 -17.68,29.95 -28.11,43.8 0,1.68 0,3.37 0,5.06 13.76,0.02 27.53,0 41.3,0.01 0.04,-2.78 0.02,-5.56 -0.03,-8.33 -9.16,0.03 -18.32,0.01 -27.48,0.01 9.69,-13.26 18.63,-27.14 26.06,-41.8 1.31,-2.11 1.12,-4.63 1.11,-7.01 -13.22,0 -26.43,0 -39.65,0 m 47.62,0 c 0,2.75 0,5.5 0.01,8.25 8.91,0.02 17.83,-0.02 26.74,0.02 -7.57,15.65 -17.65,29.95 -28.11,43.77 0,1.69 0,3.38 -0.01,5.08 13.77,0.01 27.54,0.01 41.31,0 0.01,-2.77 0.01,-5.54 0,-8.3 -9.16,-0.02 -18.32,0 -27.49,-0.01 9.6,-13.18 18.46,-26.95 25.88,-41.47 1.4,-2.2 1.33,-4.83 1.27,-7.34 -13.2,-0.01 -26.4,-0.01 -39.6,0 m 44.08,0.03 c 5.99,11.71 12.69,23.06 18.58,34.8 0.25,7.42 0.01,14.86 0.1,22.29 3.29,0.01 6.58,0.01 9.87,0 -0.01,-6.38 0.04,-12.77 -0.02,-19.15 0.08,-1.55 -0.24,-3.25 0.6,-4.66 6.12,-11.11 12.45,-22.11 18.49,-33.27 -3.28,-0.05 -6.56,-0.06 -9.84,-0.04 -4.61,8.68 -9.18,17.38 -13.78,26.07 -4.52,-8.68 -8.97,-17.39 -13.47,-26.07 -3.51,-0.01 -7.02,-0.02 -10.53,0.03 M 95.12,291.06 c 0,2.27 0,4.54 0,6.82 2.28,-0.01 4.55,-0.01 6.82,0 0,-2.28 0,-4.55 0,-6.82 -2.27,0 -4.55,0 -6.82,0 m 13.13,0.76 c 0.13,7.1 -0.28,14.23 0.22,21.33 0.34,4.74 4.63,8.74 9.44,8.43 16.35,0.21 32.72,-0.05 49.09,0.05 0.17,-7.34 -0.13,-15.56 -5.29,-21.35 -7.61,-8.51 -21.92,-8.02 -29.94,-0.31 1.15,1.79 2.27,3.59 3.36,5.42 4.18,-4.3 10.83,-6.33 16.49,-3.87 5.19,2.08 7.84,7.73 8.03,13.07 -13.2,0.09 -26.4,0.03 -39.59,-0.07 -2.37,0.01 -4.53,-1.64 -4.68,-4.08 -0.57,-6.18 -0.1,-12.42 -0.26,-18.63 -2.29,0 -4.58,0 -6.87,0.01 m -44.44,9.97 c -4.14,3.77 -5.43,9.57 -5.55,14.96 5.23,0.01 10.46,-0.01 15.69,0.01 -3.68,9.85 -18.8,11.37 -24.78,3.03 -3.35,-4.46 -2.77,-10.34 -2.79,-15.6 -2.31,-0.01 -4.63,-0.01 -6.94,0 0.06,4.51 -0.38,9.15 1.05,13.51 2.1,6.54 7.83,11.71 14.48,13.34 7,1.67 14.99,0.35 20.35,-4.68 4.74,-4.02 7.03,-10.25 7.09,-16.36 -5.39,-0.04 -10.78,0.13 -16.17,0.03 1.95,-5.25 7.57,-7.23 12.76,-6.99 0,-2.12 0,-4.24 0,-6.35 -5.39,0.15 -11.16,1.23 -15.19,5.1 m 31.32,1.65 c -0.25,5.82 0.55,11.75 -0.56,17.5 -0.86,3.6 -4.74,4.83 -8.01,5 0,1.94 0.01,3.89 0.01,5.84 5.15,-0.05 11.31,-1.35 13.7,-6.51 2.99,-6.86 1.3,-14.6 1.7,-21.85 -2.28,0.01 -4.56,0.01 -6.84,0.02 m 47.88,22.99 c -0.01,2.29 -0.01,4.58 -0.01,6.88 2.24,0 4.49,0 6.74,0.01 0.01,-2.3 0.01,-4.59 0.01,-6.88 -2.25,-0.01 -4.5,-0.01 -6.74,-0.01 m -80.02,10.2 c 0.01,2.27 0.01,4.54 0.02,6.82 2.27,-0.01 4.53,-0.01 6.8,-0.01 0,-2.28 0,-4.55 0,-6.82 -2.27,0 -4.54,0 -6.82,0.01 m -11.61,-0.01 c -0.01,2.27 -0.01,4.54 0,6.82 2.29,0 4.58,0 6.87,0 0,-2.28 0,-4.55 0,-6.81 -2.29,-0.01 -4.58,-0.01 -6.87,-0.01 z"
       id="path14" />
    <path
       fill="#e2001a"
       opacity="1"
       d="m 49.25,218.32 c 6.95,0.27 14.97,-1.28 20.76,3.54 5.17,4.49 4.74,11.93 4.69,18.14 0.06,5.71 -0.71,12.41 -5.66,16.08 -5.75,4.1 -13.21,2.45 -19.79,2.79 0,-13.52 0,-27.04 0,-40.55 z"
       id="path15" />
  </g>
</svg>
